<svg width="46" height="46" viewBox="0 0 46 46" fill="none" xmlns="http://www.w3.org/2000/svg">
<path d="M2 8.91666C2 7.08225 2.72872 5.32297 4.02584 4.02584C5.32297 2.72872 7.08225 2 8.91667 2H36.5833C38.4177 2 40.177 2.72872 41.4742 4.02584C42.7713 5.32297 43.5 7.08225 43.5 8.91666V36.5833C43.5 38.4177 42.7713 40.177 41.4742 41.4742C40.177 42.7713 38.4177 43.5 36.5833 43.5H8.91667C7.08225 43.5 5.32297 42.7713 4.02584 41.4742C2.72872 40.177 2 38.4177 2 36.5833V8.91666Z" fill="white"/>
<path d="M43.5 15.8333V29.6667M2 8.91666C2 7.08225 2.72872 5.32297 4.02584 4.02584C5.32297 2.72872 7.08225 2 8.91667 2H36.5833C38.4177 2 40.177 2.72872 41.4742 4.02584C42.7713 5.32297 43.5 7.08225 43.5 8.91666V36.5833C43.5 38.4177 42.7713 40.177 41.4742 41.4742C40.177 42.7713 38.4177 43.5 36.5833 43.5H8.91667C7.08225 43.5 5.32297 42.7713 4.02584 41.4742C2.72872 40.177 2 38.4177 2 36.5833V8.91666Z" stroke="url(#paint0_linear_49_54)" stroke-width="4" stroke-linecap="round" stroke-linejoin="round"/>
<path d="M16.504 30.864L19.288 30.096V16.24L16.6 16.464L14.232 19.312L11.896 19.12C11.896 17.3493 11.9813 15.12 12.152 12.432H32.184C32.3547 15.12 32.44 17.3493 32.44 19.12L30.136 19.312L27.736 16.464L25.112 16.24V28.816C25.112 29.328 25.144 29.6587 25.208 29.808C25.272 29.9573 25.4533 30.1067 25.752 30.256L27.736 31.44L27.608 34H16.664L16.504 30.864Z" fill="url(#paint1_linear_49_54)"/>
<defs>
<linearGradient id="paint0_linear_49_54" x1="2" y1="22.75" x2="43.5" y2="22.75" gradientUnits="userSpaceOnUse">
<stop stop-color="#9F66B4"/>
<stop offset="1" stop-color="#2662BC"/>
</linearGradient>
<linearGradient id="paint1_linear_49_54" x1="11" y1="23" x2="34" y2="23" gradientUnits="userSpaceOnUse">
<stop stop-color="#9F66B4"/>
<stop offset="1" stop-color="#2662BC"/>
</linearGradient>
</defs>
</svg>
